<svg width="104" height="17" viewBox="0 0 104 17" fill="none" xmlns="http://www.w3.org/2000/svg">
<path d="M7.38272 2.25533C7.59605 1.69266 8.40338 1.69266 8.61738 2.25533L9.99738 6.07799C10.0941 6.33133 10.3401 6.5 10.6147 6.5H14.0061C14.6327 6.5 14.9061 7.27999 14.4134 7.66199L12.0001 9.83333C11.8919 9.91643 11.8129 10.0316 11.7744 10.1624C11.7358 10.2932 11.7397 10.4329 11.7854 10.5613L12.6667 14.2967C12.8814 14.8967 12.1867 15.412 11.6614 15.0427L8.38338 12.9627C8.27113 12.8838 8.13726 12.8414 8.00005 12.8414C7.86284 12.8414 7.72897 12.8838 7.61672 12.9627L4.33872 15.0427C3.81405 15.412 3.11872 14.896 3.33338 14.2967L4.21472 10.5613C4.26044 10.4329 4.26429 10.2932 4.22572 10.1624C4.18716 10.0316 4.10816 9.91643 4.00005 9.83333L1.58672 7.66199C1.09338 7.27999 1.36805 6.5 1.99338 6.5H5.38472C5.51825 6.50044 5.64876 6.46033 5.759 6.38498C5.86923 6.30962 5.95399 6.20257 6.00205 6.07799L7.38205 2.25533H7.38272Z" fill="#F7AB3A" stroke="#F7AB3A" stroke-width="0.5" stroke-linecap="round" stroke-linejoin="round"/>
<path d="M29.3827 2.25533C29.5961 1.69266 30.4034 1.69266 30.6174 2.25533L31.9974 6.07799C32.0941 6.33133 32.3401 6.5 32.6147 6.5H36.0061C36.6327 6.5 36.9061 7.27999 36.4134 7.66199L34.0001 9.83333C33.8919 9.91643 33.8129 10.0316 33.7744 10.1624C33.7358 10.2932 33.7397 10.4329 33.7854 10.5613L34.6667 14.2967C34.8814 14.8967 34.1867 15.412 33.6614 15.0427L30.3834 12.9627C30.2711 12.8838 30.1373 12.8414 30.0001 12.8414C29.8628 12.8414 29.729 12.8838 29.6167 12.9627L26.3387 15.0427C25.8141 15.412 25.1187 14.896 25.3334 14.2967L26.2147 10.5613C26.2604 10.4329 26.2643 10.2932 26.2257 10.1624C26.1872 10.0316 26.1082 9.91643 26.0001 9.83333L23.5867 7.66199C23.0934 7.27999 23.3681 6.5 23.9934 6.5H27.3847C27.5182 6.50044 27.6488 6.46033 27.759 6.38498C27.8692 6.30962 27.954 6.20257 28.0021 6.07799L29.3821 2.25533H29.3827Z" fill="#F7AB3A"/>
<path d="M51.3827 2.25533C51.5961 1.69266 52.4034 1.69266 52.6174 2.25533L53.9974 6.07799C54.0941 6.33133 54.3401 6.5 54.6147 6.5H58.0061C58.6327 6.5 58.9061 7.27999 58.4134 7.66199L56.0001 9.83333C55.8919 9.91643 55.8129 10.0316 55.7744 10.1624C55.7358 10.2932 55.7397 10.4329 55.7854 10.5613L56.6667 14.2967C56.8814 14.8967 56.1867 15.412 55.6614 15.0427L52.3834 12.9627C52.2711 12.8838 52.1373 12.8414 52.0001 12.8414C51.8628 12.8414 51.729 12.8838 51.6167 12.9627L48.3387 15.0427C47.8141 15.412 47.1187 14.896 47.3334 14.2967L48.2147 10.5613C48.2604 10.4329 48.2643 10.2932 48.2257 10.1624C48.1872 10.0316 48.1082 9.91643 48.0001 9.83333L45.5867 7.66199C45.0934 7.27999 45.3681 6.5 45.9934 6.5H49.3847C49.5182 6.50044 49.6488 6.46033 49.759 6.38498C49.8692 6.30962 49.954 6.20257 50.0021 6.07799L51.3821 2.25533H51.3827Z" fill="#F7AB3A"/>
<path d="M73.3827 2.25533C73.5961 1.69266 74.4034 1.69266 74.6174 2.25533L75.9974 6.07799C76.0941 6.33133 76.3401 6.5 76.6147 6.5H80.0061C80.6327 6.5 80.9061 7.28 80.4134 7.662L78.0001 9.83333C77.8919 9.91643 77.8129 10.0316 77.7744 10.1624C77.7358 10.2932 77.7397 10.4329 77.7854 10.5613L78.6667 14.2967C78.8814 14.8967 78.1867 15.412 77.6614 15.0427L74.3834 12.9627C74.2711 12.8838 74.1373 12.8414 74.0001 12.8414C73.8628 12.8414 73.729 12.8838 73.6167 12.9627L70.3387 15.0427C69.8141 15.412 69.1187 14.896 69.3334 14.2967L70.2147 10.5613C70.2604 10.4329 70.2643 10.2932 70.2257 10.1624C70.1872 10.0316 70.1082 9.91643 70.0001 9.83333L67.5867 7.662C67.0934 7.28 67.3681 6.5 67.9934 6.5H71.3847C71.5182 6.50044 71.6488 6.46033 71.759 6.38498C71.8692 6.30962 71.954 6.20257 72.0021 6.07799L73.3821 2.25533H73.3827Z" stroke="#C4CDD5" stroke-width="0.5" stroke-linecap="round" stroke-linejoin="round"/>
<path d="M95.3827 2.25533C95.5961 1.69266 96.4034 1.69266 96.6174 2.25533L97.9974 6.07799C98.0941 6.33133 98.3401 6.5 98.6147 6.5H102.006C102.633 6.5 102.906 7.28 102.413 7.662L100 9.83333C99.8919 9.91643 99.8129 10.0316 99.7744 10.1624C99.7358 10.2932 99.7397 10.4329 99.7854 10.5613L100.667 14.2967C100.881 14.8967 100.187 15.412 99.6614 15.0427L96.3834 12.9627C96.2711 12.8838 96.1373 12.8414 96.0001 12.8414C95.8628 12.8414 95.729 12.8838 95.6167 12.9627L92.3387 15.0427C91.8141 15.412 91.1187 14.896 91.3334 14.2967L92.2147 10.5613C92.2604 10.4329 92.2643 10.2932 92.2257 10.1624C92.1872 10.0316 92.1082 9.91643 92.0001 9.83333L89.5867 7.662C89.0934 7.28 89.3681 6.5 89.9934 6.5H93.3847C93.5182 6.50044 93.6488 6.46033 93.759 6.38498C93.8692 6.30962 93.954 6.20257 94.0021 6.07799L95.3821 2.25533H95.3827Z" stroke="#C4CDD5" stroke-width="0.5" stroke-linecap="round" stroke-linejoin="round"/>
</svg>
